PathFileType	4	(X/Y/Z)	s01c0301.trc
DataRate	CameraRate	NumFrames	NumMarkers	Units	OrigDataRate	OrigDataStartFrame	OrigNumFrames
200	200	4	48	mm	200	750	2000
Frame#	Time	racr			lacr			c7			jug			rlel			rdr			llel			ldr			s2			lic			ric			lasi			rasi			rpsi			lpsi			rgt			lgt			rth1			rth2			rth3			rth4			rlfc			rsh1			rsh2			rsh3			rsh4			rlmal			rmmal			rcal			rtoe			rmt5			lth1			lth2			lth4			lth3			llfc			lsh1			lsh2			lsh3			lsh4			llmal			lmmal			lcal			ltoe			lmt5			SBIKE			LBIKE			RBIKE			
		X1	Y1	Z1	X2	Y2	Z2	X3	Y3	Z3	X4	Y4	Z4	X5	Y5	Z5	X6	Y6	Z6	X7	Y7	Z7	X8	Y8	Z8	X9	Y9	Z9	X10	Y10	Z10	X11	Y11	Z11	X12	Y12	Z12	X13	Y13	Z13	X14	Y14	Z14	X15	Y15	Z15	X16	Y16	Z16	X17	Y17	Z17	X18	Y18	Z18	X19	Y19	Z19	X20	Y20	Z20	X21	Y21	Z21	X22	Y22	Z22	X23	Y23	Z23	X24	Y24	Z24	X25	Y25	Z25	X26	Y26	Z26	X27	Y27	Z27	X28	Y28	Z28	X29	Y29	Z29	X30	Y30	Z30	X31	Y31	Z31	X32	Y32	Z32	X33	Y33	Z33	X34	Y34	Z34	X35	Y35	Z35	X36	Y36	Z36	X37	Y37	Z37	X38	Y38	Z38	X39	Y39	Z39	X40	Y40	Z40	X41	Y41	Z41	X42	Y42	Z42	X43	Y43	Z43	X44	Y44	Z44	X45	Y45	Z45	X46	Y46	Z46	X47	Y47	Z47	X48	Y48	Z48	
750	3.7500	716.740454	1363.202989	-106.083107	749.091342	1303.752607	-437.272715	710.457914	1413.013782	-276.362517	690.037758	1248.022161	-262.924080	618.017234	1091.580599	-5.125162	729.813542	865.969666	-80.425609	639.927133	1064.563784	-575.910972	724.455926	855.465082	-465.912652	163.383445	1230.705997	-278.167584	327.411430	1229.729296	-458.032679	321.547378	1212.574169	-126.212756	322.838883	1173.834877	-433.154840	349.199530	1165.400245	-160.465263	198.795740	1265.930030	-227.188861	191.433086	1274.137074	-332.699281	268.701918	1102.356226	-103.190911	261.178865	1096.685952	-478.547987	332.987260	985.832098	-89.905221	380.203762	918.015234	-97.225703	425.958275	840.909192	-110.911005	425.569220	946.805722	-114.538866	462.298950	732.794388	-133.672037	414.822021	623.789453	-91.884698	389.344968	542.775377	-92.639898	354.275465	461.351223	-97.945547	429.233684	528.076493	-136.022557	290.973359	349.931790	-109.083329	336.337381	355.343997	-187.672553	241.037978	332.672312	-158.700481	496.045094	238.835559	-142.434685	387.635874	239.976367	-72.708224	317.978547	986.129829	-491.593091	381.990703	923.905833	-491.974818	419.301967	960.340080	-480.379065	434.091372	857.251702	-481.272602	464.183877	749.694939	-461.153319	354.871017	708.364523	-487.861713	283.647856	661.012043	-474.282786	210.848430	618.741388	-454.250284	316.885342	619.626818	-443.145574	105.328134	557.451979	-427.575581	134.655001	543.096374	-348.996925	54.926162	574.494711	-381.385073	193.551848	333.176657	-376.904031	116.715934	405.470784	-446.483367	-227.502676	890.988315	-252.670271	-21.184061	80.411052	-454.241973	-21.230096	80.252169	-54.047517	
751	3.7550	717.969989	1362.716084	-107.206250	748.923646	1304.588747	-438.403873	711.470389	1413.067763	-276.748313	690.673916	1247.960642	-263.868996	621.068571	1090.619958	-5.650610	730.391251	864.884070	-80.596568	639.555052	1064.263073	-576.512237	724.341402	855.768383	-465.729481	164.190009	1229.952182	-275.748961	327.327576	1230.532277	-456.284044	323.127907	1211.258060	-124.989660	323.280282	1174.260959	-431.374626	350.302222	1164.017630	-158.708919	200.113605	1264.726677	-224.752314	192.005744	1273.953163	-329.715306	268.141631	1100.269091	-102.217111	262.420475	1098.153824	-477.579187	330.158233	982.837240	-88.576105	375.629573	913.829563	-95.762521	419.436825	835.533164	-109.362302	421.764673	941.403775	-112.929783	453.943417	726.238703	-131.938793	407.372643	616.692709	-90.246778	383.151961	535.339862	-91.211870	349.300400	453.268054	-96.790576	423.215399	521.349310	-134.683262	287.374609	341.780137	-108.997051	333.125377	346.829406	-186.827907	238.028280	326.216631	-158.281984	491.148763	227.221950	-142.301095	382.830174	230.338411	-72.543253	320.966888	989.372491	-491.788726	386.446588	928.764583	-493.459277	423.050758	966.046083	-481.537167	440.363966	863.259517	-483.234445	471.455769	755.876543	-463.753851	361.885667	715.733741	-489.569546	290.255711	669.146305	-475.378780	216.327743	628.350402	-456.354242	323.283856	627.313215	-444.583519	111.654963	566.753980	-427.517398	141.231508	552.573301	-349.087745	61.377518	584.211765	-381.338371	199.329469	342.625848	-376.968517	122.752154	415.044007	-446.453089	-227.463797	891.015666	-252.552989	-21.160293	80.404556	-454.312023	-21.206069	80.247153	-54.036515	
752	3.7600	719.110892	1362.237404	-108.389290	748.861857	1305.705269	-439.640073	712.357006	1413.325220	-277.252242	691.294008	1248.205885	-264.943493	624.035342	1089.801902	-6.382521	730.898157	863.959548	-80.825680	639.077723	1064.069331	-576.889596	724.298986	855.969380	-465.553711	164.908251	1229.432927	-273.271993	327.188004	1231.620198	-454.558330	324.952429	1210.217545	-123.770932	323.643369	1174.674326	-429.518738	351.496173	1162.622804	-157.134246	200.846581	1264.075051	-221.839886	192.464337	1273.466967	-327.137033	267.382658	1098.724784	-100.532989	263.487535	1099.834099	-476.571447	327.204200	980.215427	-87.137126	370.891599	909.943665	-94.069461	412.624585	830.474474	-107.565940	417.662677	936.318256	-111.169390	444.969112	719.943894	-129.874087	399.071326	610.015650	-88.193648	376.230626	528.188939	-89.571790	343.779210	445.655162	-95.357075	416.681359	515.074653	-132.850516	283.512867	334.135800	-108.785427	329.631893	339.159952	-185.554411	234.735032	320.359752	-157.660969	485.642156	215.624534	-142.387332	377.471188	220.960416	-72.266834	323.523662	992.853919	-491.971974	390.481065	933.904852	-495.025215	426.310084	971.906443	-482.883172	446.344686	869.648250	-484.820894	478.721332	762.328031	-466.316963	369.105874	723.221582	-491.137957	297.216195	677.333513	-476.478200	223.138527	637.005690	-456.741228	330.114580	635.051280	-445.856318	118.716070	575.889730	-427.678500	148.552670	561.664486	-349.139734	68.435423	593.451169	-381.238662	205.657606	351.542703	-377.138507	129.325881	424.218174	-446.491609	-227.421772	891.015453	-252.484915	-21.136763	80.511630	-454.233107	-21.191039	80.243377	-54.017890	
753	3.7650	720.107381	1361.855326	-109.632356	748.744391	1307.043373	-440.899605	713.121052	1413.870657	-277.728538	691.873398	1248.831751	-266.107870	626.687581	1089.001290	-7.284075	731.321863	863.055341	-81.042746	638.683392	1064.066152	-576.993698	724.316269	856.213154	-465.372507	165.752826	1228.990711	-270.689925	326.945859	1232.536228	-452.821339	327.060095	1209.291637	-122.489316	323.968872	1175.205085	-427.654003	352.659477	1161.443311	-155.507714	202.103394	1263.276604	-219.261148	192.926888	1273.449094	-324.409743	266.962764	1096.819631	-99.535950	264.245662	1101.740271	-475.569598	324.166183	977.952809	-85.471207	365.853912	906.596695	-92.209466	405.595667	825.842984	-105.308063	413.494989	931.429519	-109.240055	435.276642	713.881692	-127.511347	390.000099	603.855880	-85.802083	368.652237	521.602658	-87.574974	337.750854	438.569405	-93.670488	409.645550	509.233683	-130.606434	279.431591	326.987157	-108.188868	325.861705	332.290313	-183.913900	231.195212	315.286252	-156.713827	479.502104	204.400781	-142.495592	371.704473	212.029336	-72.137715	325.789383	996.379918	-492.095177	394.156295	939.014728	-496.338414	429.207986	977.838159	-484.209191	451.546675	876.173484	-486.942098	486.067555	769.131362	-468.856857	376.633387	730.787128	-492.679771	304.553180	685.350010	-477.473592	230.878595	645.177767	-456.227621	337.670158	642.868846	-447.637008	126.436431	584.635272	-427.860013	156.306991	570.307469	-349.252198	76.015853	602.397910	-381.151886	212.571343	360.002607	-377.228643	136.438721	432.987690	-446.519083	-227.448373	891.050269	-252.462770	-21.145388	80.463414	-454.272649	-21.180942	80.275262	-54.002260	
